<!-- Generated by the wonderful https://github.com/nodejs/lts-schedule, written by @cjihrig. -->
<svg xmlns="http://www.w3.org/2000/svg" width="960" height="500">
  <defs>
    <style>
      .current{fill:#2aa748}.active{fill:#47b4ff}.maintenance,.tick text{fill:#89a19d}.unstable{fill:#ffb800}.bar-join,.label{fill:#fff}.bar-join.current{display:none}.tick text{font:16px sans-serif}.axis--y .tick text{text-anchor:end}.label{font:20px sans-serif;font-weight:100;text-anchor:start;dominant-baseline:middle;text-transform:uppercase}
    </style>
  </defs>
  <g id="bar-container">
    <g class="axis axis--x" fill="none" font-size="10" font-family="sans-serif" text-anchor="middle">
      <g class="tick">
        <path stroke="#89a19d" d="M.5 0v440" transform="translate(110.152 30)"/>
        <text fill="#000" x=".5" dy="-10" transform="translate(110.152 30)">
          Jan 2013
        </text>
      </g>
      <g class="tick">
        <path stroke="#89a19d" stroke-dasharray="2,2" d="M.5 0v440" transform="translate(212.547 30)"/>
        <text fill="#000" x=".5" dy="-10" transform="translate(212.547 30)">
          Jan 2014
        </text>
      </g>
      <g class="tick">
        <path stroke="#89a19d" d="M.5 0v440" transform="translate(314.942 30)"/>
        <text fill="#000" x=".5" dy="-10" transform="translate(314.942 30)">
          Jan 2015
        </text>
      </g>
      <g class="tick">
        <path stroke="#89a19d" stroke-dasharray="2,2" d="M.5 0v440" transform="translate(417.336 30)"/>
        <text fill="#000" x=".5" dy="-10" transform="translate(417.336 30)">
          Jan 2016
        </text>
      </g>
      <g class="tick">
        <path stroke="#89a19d" d="M.5 0v440" transform="translate(520.012 30)"/>
        <text fill="#000" x=".5" dy="-10" transform="translate(520.012 30)">
          Jan 2017
        </text>
      </g>
      <g class="tick">
        <path stroke="#89a19d" stroke-dasharray="2,2" d="M.5 0v440" transform="translate(622.406 30)"/>
        <text fill="#000" x=".5" dy="-10" transform="translate(622.406 30)">
          Jan 2018
        </text>
      </g>
      <g class="tick">
        <path stroke="#89a19d" d="M.5 0v440" transform="translate(724.801 30)"/>
        <text fill="#000" x=".5" dy="-10" transform="translate(724.801 30)">
          Jan 2019
        </text>
      </g>
      <g class="tick">
        <path stroke="#89a19d" stroke-dasharray="2,2" d="M.5 0v440" transform="translate(827.196 30)"/>
        <text fill="#000" x=".5" dy="-10" transform="translate(827.196 30)">
          Jan 2020
        </text>
      </g>
      <g class="tick">
        <path stroke="#89a19d" d="M.5 0v440" transform="translate(929.871 30)"/>
        <text fill="#000" x=".5" dy="-10" transform="translate(929.871 30)">
          Jan 2021
        </text>
      </g>
    </g>
    <g class="axis axis--y" fill="none" font-size="10" font-family="sans-serif">
      <g class="tick">
        <path stroke="#e1e7e7" d="M0 .5h820" transform="translate(110 83.962)"/>
        <text fill="#000" y=".5" dy=".32em" dx="-10" transform="translate(110 83.962)">
          Master
        </text>
      </g>
      <g class="tick">
        <path stroke="#e1e7e7" d="M0 .5h820" transform="translate(110 166.981)"/>
        <text fill="#000" y=".5" dy=".32em" dx="-10" transform="translate(110 166.981)">
          v2
        </text>
      </g>
      <g class="tick">
        <path stroke="#e1e7e7" d="M0 .5h820" transform="translate(110 250)"/>
        <text fill="#000" y=".5" dy=".32em" dx="-10" transform="translate(110 250)">
          v3
        </text>
      </g>
      <g class="tick">
        <path stroke="#e1e7e7" d="M0 .5h820" transform="translate(110 333.019)"/>
        <text fill="#000" y=".5" dy=".32em" dx="-10" transform="translate(110 333.019)">
          v4
        </text>
      </g>
      <g class="tick">
        <path stroke="#e1e7e7" d="M0 .5h820" transform="translate(110 416.038)"/>
        <text fill="#000" y=".5" dy=".32em" dx="-10" transform="translate(110 416.038)">
          v5
        </text>
      </g>
      <path stroke="#89a19d" d="M0 440h820" transform="translate(110 30)"/>
    </g>
    <path class="bar unstable" d="M0 24.906h820v58.113H0z" transform="translate(110 30)"/>
    <text class="label" x="15" y="55.962" transform="translate(110 30)">
      unstable
    </text>
    <path class="bar current" d="M55.826 107.925h8.977v58.113h-8.977z" transform="translate(110 30)"/>
    <path class="bar maintenance" d="M377.037 190.943h295.121v58.113H377.037z" transform="translate(110 30)"/>
    <path class="bar-join maintenance" d="M376.037 190.943h2v58.113h-2z" transform="translate(110 30)"/>
    <text class="label" x="392.037" y="222" transform="translate(110 30)">
      maintenance
    </text>
    <path class="bar active" d="M187.958 190.943h189.08v58.113h-189.08z" transform="translate(110 30)"/>
    <path class="bar-join active" d="M186.958 190.943h2v58.113h-2z" transform="translate(110 30)"/>
    <text class="label" x="202.958" y="222" transform="translate(110 30)">
      active
    </text>
    <path class="bar current" d="M64.803 190.943h123.154v58.113H64.803z" transform="translate(110 30)"/>
    <text class="label" x="79.803" y="222" transform="translate(110 30)">
      current
    </text>
    <g>
      <path class="bar maintenance" d="M678.05 273.962h51.618v58.113H678.05z" transform="translate(110 30)"/>
      <path class="bar-join maintenance" d="M677.05 273.962h2v58.113h-2z" transform="translate(110 30)"/>
    </g>
    <g>
      <path class="bar active" d="M627.273 273.962h50.777v58.113h-50.777z" transform="translate(110 30)"/>
      <path class="bar-join active" d="M626.273 273.962h2v58.113h-2z" transform="translate(110 30)"/>
    </g>
    <g>
      <path class="bar current" d="M517.304 273.962h109.969v58.113H517.304z" transform="translate(110 30)"/>
      <text class="label" x="532.304" y="305.019" transform="translate(110 30)">
        current
      </text>
    </g>
    <g>
      <path class="bar maintenance" d="M777.078 356.981H820v58.113h-42.922z" transform="translate(110 30)"/>
      <path class="bar-join maintenance" d="M776.078 356.981h2v58.113h-2z" transform="translate(110 30)"/>
    </g>
    <g>
      <path class="bar active" d="M726.021 356.981h51.057v58.113h-51.057z" transform="translate(110 30)"/>
      <path class="bar-join active" d="M725.021 356.981h2v58.113h-2z" transform="translate(110 30)"/>
    </g>
    <g>
      <path class="bar current" d="M627.273 356.981h98.748v58.113h-98.748z" transform="translate(110 30)"/>
      <text class="label" x="642.273" y="388.038" transform="translate(110 30)">
        current
      </text>
    </g>
  </g>
</svg>
